<svg data-v-fde0c5aa="" xmlns="http://www.w3.org/2000/svg" viewBox="0 0 300 300" class="font"><!----><defs data-v-fde0c5aa=""><!----></defs><rect data-v-fde0c5aa="" fill="transparent" x="0" y="0" width="300px" height="300px" class="logo-background-square"></rect><defs data-v-fde0c5aa=""><linearGradient data-v-fde0c5aa="" gradientTransform="rotate(25)" id="cdd70abe-ec45-4aca-918b-fc6b445f1ac4" x1="0%" y1="0%" x2="100%" y2="0%"><stop data-v-fde0c5aa="" offset="0%" stop-color="#838383" stop-opacity="1"></stop><stop data-v-fde0c5aa="" offset="100%" stop-color="#A54807" stop-opacity="1"></stop></linearGradient></defs><g data-v-fde0c5aa="" id="7e164d20-9720-4935-8e7a-caafa9a83602" fill="url(#cdd70abe-ec45-4aca-918b-fc6b445f1ac4)" transform="matrix(2.790815591812134,0,0,2.790815591812134,36.79056210988031,120.71038911459733)"><path d="M1.36 14L1.36 14Q1.26 14 1.20 13.94L1.20 13.94L1.20 13.94Q1.15 13.89 1.15 13.79L1.15 13.79L1.15 4.41L1.15 4.41Q1.15 4.31 1.20 4.26L1.20 4.26L1.20 4.26Q1.26 4.20 1.36 4.20L1.36 4.20L4.68 4.20L4.68 4.20Q6.13 4.20 7 4.96L7 4.96L7 4.96Q7.87 5.73 7.87 7L7.87 7L7.87 11.20L7.87 11.20Q7.87 12.47 7 13.24L7 13.24L7 13.24Q6.13 14 4.68 14L4.68 14L1.36 14ZM2.49 12.77L2.49 12.77Q2.49 12.84 2.56 12.84L2.56 12.84L4.73 12.84L4.73 12.84Q5.54 12.84 6.03 12.34L6.03 12.34L6.03 12.34Q6.51 11.84 6.52 11.00L6.52 11.00L6.52 7.20L6.52 7.20Q6.52 6.36 6.04 5.86L6.04 5.86L6.04 5.86Q5.56 5.36 4.73 5.36L4.73 5.36L2.56 5.36L2.56 5.36Q2.49 5.36 2.49 5.43L2.49 5.43L2.49 12.77ZM12.56 14.11L12.56 14.11Q11.51 14.11 10.75 13.59L10.75 13.59L10.75 13.59Q9.98 13.06 9.67 12.12L9.67 12.12L9.67 12.12Q9.42 11.37 9.42 10.42L9.42 10.42L9.42 10.42Q9.42 9.42 9.66 8.74L9.66 8.74L9.66 8.74Q9.97 7.81 10.74 7.29L10.74 7.29L10.74 7.29Q11.51 6.76 12.57 6.76L12.57 6.76L12.57 6.76Q13.58 6.76 14.33 7.29L14.33 7.29L14.33 7.29Q15.08 7.81 15.40 8.72L15.40 8.72L15.40 8.72Q15.65 9.44 15.65 10.40L15.65 10.40L15.65 10.40Q15.65 11.38 15.40 12.12L15.40 12.12L15.40 12.12Q15.09 13.06 14.34 13.59L14.34 13.59L14.34 13.59Q13.58 14.11 12.56 14.11L12.56 14.11ZM12.56 12.95L12.56 12.95Q13.12 12.95 13.54 12.63L13.54 12.63L13.54 12.63Q13.96 12.32 14.14 11.75L14.14 11.75L14.14 11.75Q14.29 11.21 14.29 10.43L14.29 10.43L14.29 10.43Q14.29 9.65 14.15 9.13L14.15 9.13L14.15 9.13Q13.97 8.55 13.55 8.24L13.55 8.24L13.55 8.24Q13.13 7.92 12.53 7.92L12.53 7.92L12.53 7.92Q11.96 7.92 11.54 8.24L11.54 8.24L11.54 8.24Q11.12 8.55 10.93 9.13L10.93 9.13L10.93 9.13Q10.78 9.62 10.78 10.43L10.78 10.43L10.78 10.43Q10.78 11.24 10.93 11.75L10.93 11.75L10.93 11.75Q11.10 12.32 11.53 12.63L11.53 12.63L11.53 12.63Q11.96 12.95 12.56 12.95L12.56 12.95ZM20.26 14.11L20.26 14.11Q19.19 14.11 18.44 13.57L18.44 13.57L18.44 13.57Q17.68 13.03 17.40 12.11L17.40 12.11L17.40 12.11Q17.19 11.47 17.19 10.42L17.19 10.42L17.19 10.42Q17.19 9.45 17.40 8.72L17.40 8.72L17.40 8.72Q17.68 7.83 18.45 7.29L18.45 7.29L18.45 7.29Q19.21 6.76 20.26 6.76L20.26 6.76L20.26 6.76Q21.31 6.76 22.09 7.29L22.09 7.29L22.09 7.29Q22.88 7.83 23.11 8.64L23.11 8.64L23.11 8.64Q23.18 8.82 23.21 9.03L23.21 9.03L23.21 9.06L23.21 9.06Q23.21 9.23 23.03 9.25L23.03 9.25L22.12 9.38L22.08 9.38L22.08 9.38Q21.92 9.38 21.88 9.23L21.88 9.23L21.84 9.04L21.84 9.04Q21.73 8.57 21.29 8.25L21.29 8.25L21.29 8.25Q20.86 7.92 20.24 7.92L20.24 7.92L20.24 7.92Q19.64 7.92 19.22 8.25L19.22 8.25L19.22 8.25Q18.80 8.57 18.68 9.10L18.68 9.10L18.68 9.10Q18.55 9.60 18.55 10.43L18.55 10.43L18.55 10.43Q18.55 11.24 18.68 11.75L18.68 11.75L18.68 11.75Q18.82 12.31 19.23 12.63L19.23 12.63L19.23 12.63Q19.64 12.95 20.24 12.95L20.24 12.95L20.24 12.95Q20.85 12.95 21.28 12.63L21.28 12.63L21.28 12.63Q21.71 12.32 21.84 11.83L21.84 11.83L21.85 11.77L21.85 11.76L21.85 11.76Q21.87 11.69 21.94 11.63L21.94 11.63L21.94 11.63Q22.01 11.56 22.09 11.58L22.09 11.58L23.00 11.73L23.00 11.73Q23.20 11.77 23.18 11.96L23.18 11.96L23.18 11.96Q23.17 12.01 23.11 12.22L23.11 12.22L23.11 12.22Q22.88 13.08 22.09 13.59L22.09 13.59L22.09 13.59Q21.31 14.11 20.26 14.11L20.26 14.11ZM29.01 7.08L29.01 7.08Q29.01 6.99 29.06 6.93L29.06 6.93L29.06 6.93Q29.12 6.87 29.22 6.87L29.22 6.87L30.13 6.87L30.13 6.87Q30.23 6.87 30.28 6.93L30.28 6.93L30.28 6.93Q30.34 6.99 30.34 7.08L30.34 7.08L30.34 13.79L30.34 13.79Q30.34 13.89 30.28 13.94L30.28 13.94L30.28 13.94Q30.23 14 30.13 14L30.13 14L29.22 14L29.22 14Q29.12 14 29.06 13.94L29.06 13.94L29.06 13.94Q29.01 13.89 29.01 13.79L29.01 13.79L29.01 13.37L29.01 13.37Q29.01 13.33 28.98 13.32L28.98 13.32L28.98 13.32Q28.95 13.31 28.92 13.34L28.92 13.34L28.92 13.34Q28.36 14.10 27.22 14.10L27.22 14.10L27.22 14.10Q26.53 14.10 25.95 13.83L25.95 13.83L25.95 13.83Q25.37 13.57 25.02 13.05L25.02 13.05L25.02 13.05Q24.67 12.53 24.67 11.79L24.67 11.79L24.67 7.08L24.67 7.08Q24.67 6.99 24.72 6.93L24.72 6.93L24.72 6.93Q24.78 6.87 24.88 6.87L24.88 6.87L25.79 6.87L25.79 6.87Q25.89 6.87 25.94 6.93L25.94 6.93L25.94 6.93Q26.00 6.99 26.00 7.08L26.00 7.08L26.00 11.37L26.00 11.37Q26.00 12.10 26.38 12.52L26.38 12.52L26.38 12.52Q26.77 12.94 27.47 12.94L27.47 12.94L27.47 12.94Q28.17 12.94 28.59 12.51L28.59 12.51L28.59 12.51Q29.01 12.08 29.01 11.37L29.01 11.37L29.01 7.08ZM39.70 6.78L39.70 6.78Q40.77 6.78 41.38 7.41L41.38 7.41L41.38 7.41Q42 8.05 42 9.18L42 9.18L42 13.79L42 13.79Q42 13.89 41.94 13.94L41.94 13.94L41.94 13.94Q41.89 14 41.79 14L41.79 14L40.88 14L40.88 14Q40.78 14 40.73 13.94L40.73 13.94L40.73 13.94Q40.67 13.89 40.67 13.79L40.67 13.79L40.67 9.46L40.67 9.46Q40.67 8.76 40.29 8.35L40.29 8.35L40.29 8.35Q39.90 7.94 39.26 7.94L39.26 7.94L39.26 7.94Q38.61 7.94 38.21 8.34L38.21 8.34L38.21 8.34Q37.80 8.75 37.80 9.44L37.80 9.44L37.80 13.79L37.80 13.79Q37.80 13.89 37.74 13.94L37.74 13.94L37.74 13.94Q37.69 14 37.59 14L37.59 14L36.68 14L36.68 14Q36.58 14 36.53 13.94L36.53 13.94L36.53 13.94Q36.47 13.89 36.47 13.79L36.47 13.79L36.47 9.46L36.47 9.46Q36.47 8.76 36.09 8.35L36.09 8.35L36.09 8.35Q35.70 7.94 35.06 7.94L35.06 7.94L35.06 7.94Q34.41 7.94 34.03 8.34L34.03 8.34L34.03 8.34Q33.64 8.75 33.64 9.44L33.64 9.44L33.64 13.79L33.64 13.79Q33.64 13.89 33.59 13.94L33.59 13.94L33.59 13.94Q33.53 14 33.43 14L33.43 14L32.51 14L32.51 14Q32.41 14 32.35 13.94L32.35 13.94L32.35 13.94Q32.30 13.89 32.30 13.79L32.30 13.79L32.30 7.08L32.30 7.08Q32.30 6.99 32.35 6.93L32.35 6.93L32.35 6.93Q32.41 6.87 32.51 6.87L32.51 6.87L33.43 6.87L33.43 6.87Q33.53 6.87 33.59 6.93L33.59 6.93L33.59 6.93Q33.64 6.99 33.64 7.08L33.64 7.08L33.64 7.46L33.64 7.46Q33.64 7.50 33.67 7.52L33.67 7.52L33.67 7.52Q33.70 7.53 33.73 7.50L33.73 7.50L33.73 7.50Q34.36 6.78 35.50 6.78L35.50 6.78L35.50 6.78Q36.20 6.78 36.72 7.05L36.72 7.05L36.72 7.05Q37.23 7.32 37.51 7.84L37.51 7.84L37.51 7.84Q37.55 7.90 37.60 7.84L37.60 7.84L37.60 7.84Q37.93 7.29 38.48 7.04L38.48 7.04L38.48 7.04Q39.03 6.78 39.70 6.78L39.70 6.78ZM46.86 12.96L46.86 12.96Q47.99 12.95 48.48 12.08L48.48 12.08L48.48 12.08Q48.55 11.96 48.64 11.96L48.64 11.96L48.64 11.96Q48.71 11.96 48.76 12.00L48.76 12.00L49.34 12.35L49.34 12.35Q49.45 12.42 49.45 12.53L49.45 12.53L49.42 12.64L49.42 12.64Q49.04 13.33 48.35 13.72L48.35 13.72L48.35 13.72Q47.66 14.11 46.73 14.11L46.73 14.11L46.73 14.11Q45.74 14.11 45.05 13.67L45.05 13.67L45.05 13.67Q44.37 13.23 44.02 12.40L44.02 12.40L44.02 12.40Q43.67 11.55 43.67 10.40L43.67 10.40L43.67 10.40Q43.67 9.38 43.82 8.85L43.82 8.85L43.82 8.85Q44.07 7.88 44.83 7.32L44.83 7.32L44.83 7.32Q45.58 6.76 46.66 6.76L46.66 6.76L46.66 6.76Q47.99 6.76 48.69 7.46L48.69 7.46L48.69 7.46Q49.39 8.15 49.60 9.46L49.60 9.46L49.60 9.46Q49.67 9.98 49.70 10.72L49.70 10.72L49.70 10.72Q49.70 10.93 49.49 10.93L49.49 10.93L45.07 10.93L45.07 10.93Q45.00 10.93 45.00 11.00L45.00 11.00L45.00 11.00Q45.02 11.54 45.09 11.76L45.09 11.76L45.09 11.76Q45.25 12.32 45.71 12.64L45.71 12.64L45.71 12.64Q46.17 12.96 46.86 12.96L46.86 12.96ZM46.66 7.92L46.66 7.92Q46.05 7.92 45.66 8.22L45.66 8.22L45.66 8.22Q45.28 8.51 45.14 9.03L45.14 9.03L45.14 9.03Q45.04 9.34 45.01 9.81L45.01 9.81L45.01 9.81Q45.01 9.88 45.08 9.88L45.08 9.88L48.26 9.88L48.26 9.88Q48.33 9.88 48.33 9.81L48.33 9.81L48.33 9.81Q48.30 9.35 48.24 9.13L48.24 9.13L48.24 9.13Q48.10 8.58 47.69 8.25L47.69 8.25L47.69 8.25Q47.28 7.92 46.66 7.92L46.66 7.92ZM54.57 6.78L54.57 6.78Q55.72 6.78 56.39 7.44L56.39 7.44L56.39 7.44Q57.06 8.11 57.06 9.24L57.06 9.24L57.06 13.79L57.06 13.79Q57.06 13.89 57.01 13.94L57.01 13.94L57.01 13.94Q56.95 14 56.85 14L56.85 14L55.93 14L55.93 14Q55.83 14 55.78 13.94L55.78 13.94L55.78 13.94Q55.72 13.89 55.72 13.79L55.72 13.79L55.72 9.51L55.72 9.51Q55.72 8.81 55.31 8.37L55.31 8.37L55.31 8.37Q54.91 7.94 54.24 7.94L54.24 7.94L54.24 7.94Q53.63 7.94 53.22 8.29L53.22 8.29L53.22 8.29Q52.81 8.65 52.74 9.25L52.74 9.25L52.74 13.79L52.74 13.79Q52.74 13.89 52.68 13.94L52.68 13.94L52.68 13.94Q52.63 14 52.53 14L52.53 14L51.60 14L51.60 14Q51.51 14 51.45 13.94L51.45 13.94L51.45 13.94Q51.39 13.89 51.39 13.79L51.39 13.79L51.39 7.08L51.39 7.08Q51.39 6.99 51.45 6.93L51.45 6.93L51.45 6.93Q51.51 6.87 51.60 6.87L51.60 6.87L52.53 6.87L52.53 6.87Q52.63 6.87 52.68 6.93L52.68 6.93L52.68 6.93Q52.74 6.99 52.74 7.08L52.74 7.08L52.74 7.48L52.74 7.48Q52.74 7.52 52.77 7.53L52.77 7.53L52.77 7.53Q52.79 7.55 52.81 7.52L52.81 7.52L52.81 7.52Q53.40 6.78 54.57 6.78L54.57 6.78ZM65.31 4.20L65.31 4.20Q65.41 4.20 65.46 4.26L65.46 4.26L65.46 4.26Q65.52 4.31 65.52 4.41L65.52 4.41L65.52 5.17L65.52 5.17Q65.52 5.26 65.46 5.32L65.46 5.32L65.46 5.32Q65.41 5.38 65.31 5.38L65.31 5.38L62.71 5.38L62.71 5.38Q62.64 5.38 62.64 5.45L62.64 5.45L62.64 13.79L62.64 13.79Q62.64 13.89 62.58 13.94L62.58 13.94L62.58 13.94Q62.52 14 62.43 14L62.43 14L61.50 14L61.50 14Q61.40 14 61.35 13.94L61.35 13.94L61.35 13.94Q61.29 13.89 61.29 13.79L61.29 13.79L61.29 5.45L61.29 5.45Q61.29 5.38 61.22 5.38L61.22 5.38L58.74 5.38L58.74 5.38Q58.65 5.38 58.59 5.32L58.59 5.32L58.59 5.32Q58.53 5.26 58.53 5.17L58.53 5.17L58.53 4.41L58.53 4.41Q58.53 4.31 58.59 4.26L58.59 4.26L58.59 4.26Q58.65 4.20 58.74 4.20L58.74 4.20L65.31 4.20ZM69.64 6.76L69.64 6.76Q70.49 6.76 71.13 7.06L71.13 7.06L71.13 7.06Q71.76 7.36 72.11 7.90L72.11 7.90L72.11 7.90Q72.45 8.44 72.45 9.13L72.45 9.13L72.45 13.79L72.45 13.79Q72.45 13.89 72.39 13.94L72.39 13.94L72.39 13.94Q72.34 14 72.24 14L72.24 14L71.32 14L71.32 14Q71.22 14 71.16 13.94L71.16 13.94L71.16 13.94Q71.11 13.89 71.11 13.79L71.11 13.79L71.11 13.40L71.11 13.40Q71.11 13.36 71.08 13.34L71.08 13.34L71.08 13.34Q71.05 13.33 71.02 13.36L71.02 13.36L71.02 13.36Q70.63 13.72 70.09 13.92L70.09 13.92L70.09 13.92Q69.55 14.11 68.92 14.11L68.92 14.11L68.92 14.11Q67.90 14.11 67.24 13.59L67.24 13.59L67.24 13.59Q66.58 13.06 66.58 12.00L66.58 12.00L66.58 12.00Q66.58 10.91 67.35 10.28L67.35 10.28L67.35 10.28Q68.11 9.66 69.48 9.66L69.48 9.66L71.04 9.66L71.04 9.66Q71.11 9.66 71.11 9.59L71.11 9.59L71.11 9.23L71.11 9.23Q71.11 8.61 70.75 8.27L70.75 8.27L70.75 8.27Q70.39 7.92 69.66 7.92L69.66 7.92L69.66 7.92Q69.09 7.92 68.73 8.13L68.73 8.13L68.73 8.13Q68.38 8.34 68.26 8.72L68.26 8.72L68.26 8.72Q68.21 8.90 68.03 8.89L68.03 8.89L67.02 8.76L67.02 8.76Q66.92 8.75 66.86 8.70L66.86 8.70L66.86 8.70Q66.81 8.65 66.82 8.58L66.82 8.58L66.82 8.58Q66.95 7.78 67.72 7.27L67.72 7.27L67.72 7.27Q68.50 6.76 69.64 6.76L69.64 6.76ZM69.26 12.98L69.26 12.98Q70 12.98 70.55 12.59L70.55 12.59L70.55 12.59Q71.11 12.19 71.11 11.59L71.11 11.59L71.11 10.78L71.11 10.78Q71.11 10.71 71.04 10.71L71.04 10.71L69.73 10.71L69.73 10.71Q68.91 10.71 68.42 11.03L68.42 11.03L68.42 11.03Q67.93 11.35 67.93 11.93L67.93 11.93L67.93 11.93Q67.93 12.45 68.30 12.71L68.30 12.71L68.30 12.71Q68.67 12.98 69.26 12.98L69.26 12.98ZM78.64 7.08L78.64 7.08Q78.64 6.99 78.69 6.93L78.69 6.93L78.69 6.93Q78.75 6.87 78.85 6.87L78.85 6.87L79.77 6.87L79.77 6.87Q79.87 6.87 79.93 6.93L79.93 6.93L79.93 6.93Q79.98 6.99 79.98 7.08L79.98 7.08L79.98 13.64L79.98 13.64Q79.98 15.32 79.02 16.05L79.02 16.05L79.02 16.05Q78.06 16.79 76.47 16.79L76.47 16.79L76.47 16.79Q76.24 16.79 75.82 16.76L75.82 16.76L75.82 16.76Q75.63 16.76 75.63 16.53L75.63 16.53L75.66 15.71L75.66 15.71Q75.66 15.61 75.73 15.55L75.73 15.55L75.73 15.55Q75.80 15.50 75.89 15.51L75.89 15.51L75.89 15.51Q76.09 15.53 76.44 15.53L76.44 15.53L76.44 15.53Q77.60 15.53 78.12 15.09L78.12 15.09L78.12 15.09Q78.64 14.64 78.64 13.59L78.64 13.59L78.64 13.36L78.64 13.36Q78.64 13.31 78.61 13.31L78.61 13.31L78.61 13.31Q78.58 13.30 78.55 13.33L78.55 13.33L78.55 13.33Q77.95 14 76.85 14L76.85 14L76.85 14Q75.94 14 75.20 13.52L75.20 13.52L75.20 13.52Q74.47 13.05 74.19 12.12L74.19 12.12L74.19 12.12Q74.00 11.51 74.00 10.42L74.00 10.42L74.00 10.42Q74.00 9.25 74.21 8.62L74.21 8.62L74.21 8.62Q74.48 7.78 75.16 7.27L75.16 7.27L75.16 7.27Q75.84 6.76 76.76 6.76L76.76 6.76L76.76 6.76Q77.91 6.76 78.55 7.45L78.55 7.45L78.55 7.45Q78.58 7.49 78.61 7.48L78.61 7.48L78.61 7.48Q78.64 7.46 78.64 7.42L78.64 7.42L78.64 7.08ZM78.55 11.72L78.55 11.72Q78.60 11.49 78.62 11.24L78.62 11.24L78.62 11.24Q78.64 10.99 78.64 10.40L78.64 10.40L78.64 10.40Q78.64 9.81 78.62 9.57L78.62 9.57L78.62 9.57Q78.60 9.32 78.54 9.10L78.54 9.10L78.54 9.10Q78.43 8.58 78.04 8.25L78.04 8.25L78.04 8.25Q77.64 7.92 77.06 7.92L77.06 7.92L77.06 7.92Q76.47 7.92 76.08 8.25L76.08 8.25L76.08 8.25Q75.68 8.58 75.52 9.10L75.52 9.10L75.52 9.10Q75.36 9.52 75.36 10.40L75.36 10.40L75.36 10.40Q75.36 11.37 75.50 11.72L75.50 11.72L75.50 11.72Q75.64 12.24 76.05 12.56L76.05 12.56L76.05 12.56Q76.47 12.89 77.06 12.89L77.06 12.89L77.06 12.89Q77.67 12.89 78.06 12.56L78.06 12.56L78.06 12.56Q78.44 12.24 78.55 11.72L78.55 11.72Z"></path></g><!----><!----></svg>